<?xml version="1.0" encoding="UTF-8"?>
<svg width="48" height="48" viewBox="0 0 48 48" fill="none" xmlns="http://www.w3.org/2000/svg">
  <rect width="48" height="48" rx="8" fill="#6643B5"/>
  <path d="M24 10C17.37 10 12 15.37 12 22C12 28.63 17.37 34 24 34C30.63 34 36 28.63 36 22C36 15.37 30.63 10 24 10ZM24 13C25.1 13 26 13.9 26 15C26 16.1 25.1 17 24 17C22.9 17 22 16.1 22 15C22 13.9 22.9 13 24 13ZM28 30H20V27H28V30ZM30 24H18C16.9 24 16 23.1 16 22C16 20.9 16.9 20 18 20H30C31.1 20 32 20.9 32 22C32 23.1 31.1 24 30 24Z" fill="white"/>
</svg> 