<?xml version="1.0" encoding="UTF-8"?>
<svg width="16" height="16" viewBox="0 0 16 16" fill="none" xmlns="http://www.w3.org/2000/svg">
  <rect width="16" height="16" rx="3" fill="#6643B5"/>
  <path d="M8 3C5.79 3 4 4.79 4 7C4 9.21 5.79 11 8 11C10.21 11 12 9.21 12 7C12 4.79 10.21 3 8 3ZM8 4C8.28 4 8.5 4.22 8.5 4.5C8.5 4.78 8.28 5 8 5C7.72 5 7.5 4.78 7.5 4.5C7.5 4.22 7.72 4 8 4ZM9 10H7V9H9V10ZM10 8H6C5.72 8 5.5 7.78 5.5 7.5C5.5 7.22 5.72 7 6 7H10C10.28 7 10.5 7.22 10.5 7.5C10.5 7.78 10.28 8 10 8Z" fill="white"/>
</svg> 