<?xml version="1.0" encoding="UTF-8"?>
<svg width="128" height="128" viewBox="0 0 128 128" fill="none" xmlns="http://www.w3.org/2000/svg">
  <rect width="128" height="128" rx="24" fill="#6643B5"/>
  <path d="M64 24C46.33 24 32 38.33 32 56C32 73.67 46.33 88 64 88C81.67 88 96 73.67 96 56C96 38.33 81.67 24 64 24ZM64 32C67.31 32 70 34.69 70 38C70 41.31 67.31 44 64 44C60.69 44 58 41.31 58 38C58 34.69 60.69 32 64 32ZM76 80H52V72H76V80ZM84 64H44C40.69 64 38 61.31 38 58C38 54.69 40.69 52 44 52H84C87.31 52 90 54.69 90 58C90 61.31 87.31 64 84 64Z" fill="white"/>
  <circle cx="96" cy="96" r="24" fill="#FF4785"/>
  <path d="M88 88H92V104H88V88ZM96 88H100V104H96V88ZM104 88H108V104H104V88Z" fill="white"/>
</svg> 